# xmcd CD database file
#
# Track frame offsets:
#	150
#	12740
#	33492
#	48235
#	61002
#	93967
#	110707
#	130382
#	142550
#	156552
#	175262
#	193310
#	210980
#	228655
#	239020
#	257920
#	280882
#
# Disc length: 3965 seconds
#
# Revision: 1
# Processed by: cddbd v1.5.2PL0 Copyright (c) Steve Scherf et al.
# Submitted via: CDex 1.51
#
DISCID=fa0f7b11
DTITLE=Albert King - The Best Of Albert King
DYEAR=1987
DGENRE=Blues
TTITLE0=Born Under A Bad Sign
TTITLE1=Answer To The Laundromat Blues
TTITLE2=You Threw Your Love On Me Too Strong
TTITLE3=Crosscut Saw
TTITLE4=I'll Play The Blues For You (Part 1)
TTITLE5=Firing Line
TTITLE6=Angel Of Mercy
TTITLE7=Heart Fixing Business
TTITLE8=Killing Floor
TTITLE9=The Sky Is Crying
TTITLE10=Going Back To Iuka
TTITLE11=(I Think I'm) Drowning On Dry Land (Part1)
TTITLE12=That's What The Blues Is All About
TTITLE13=Left Hand Woman (Get Right With Me)
TTITLE14=Driving Wheel
TTITLE15=Don't Burn The Bridge (Cause You Might Wanna Come Back Across)
TTITLE16=Can't You See What You're Doing To Me
EXTD=YEAR: 1987
EXTT0=
EXTT1=
EXTT2=
EXTT3=
EXTT4=
EXTT5=
EXTT6=
EXTT7=
EXTT8=
EXTT9=
EXTT10=
EXTT11=
EXTT12=
EXTT13=
EXTT14=
EXTT15=
EXTT16=
PLAYORDER=
